name analog
datacolumns 19
datarows 28
range 0.0 0.0135
endheader
time	ground_force_vx	ground_force_vy	ground_force_vz	ground_force_px	ground_force_py	ground_force_pz	l_ground_force_vx	l_ground_force_vy	l_ground_force_vz	l_ground_force_px	l_ground_force_py	l_ground_force_pz	ground_torque_x	ground_torque_y	ground_torque_z	l_ground_torque_x	l_ground_torque_y	l_ground_torque_z
0.0	-0.0	-0.0	-0.0	-9.608725547790527	32.73126220703125	-449.6202087402344	11.47635269165039	-28.416297912597656	-547.9299926757812	-0.0	-0.0	-0.0	-0.0	-0.0	-0.0	173424.9375	-28603.20703125	3067.261962890625
0.0005	-0.0	-0.0	-0.0	-9.513992309570312	32.67935562133789	-449.3697204589844	11.032732009887695	-28.295391082763672	-546.6074829101562	-0.0	-0.0	-0.0	-0.0	-0.0	-0.0	173434.921875	-28331.26171875	3215.275146484375
0.001	-0.0	-0.0	-0.0	-9.367103576660156	32.7160530090332	-450.3456115722656	11.032669067382812	-28.48081588745117	-545.3516845703125	-0.0	-0.0	-0.0	-0.0	-0.0	-0.0	173162.8125	-28130.03515625	3126.214599609375
0.0015	-0.0	-0.0	-0.0	-9.540472030639648	32.55894088745117	-448.3497619628906	11.065104484558104	-28.592586517333984	-545.46826171875	-0.0	-0.0	-0.0	-0.0	-0.0	-0.0	172671.65625	-28145.625	3126.193359375
0.002	-0.0	-0.0	-0.0	-9.367103576660156	32.65304946899414	-448.85345458984375	10.52417278289795	-28.993297576904297	-545.6300048828125	-0.0	-0.0	-0.0	-0.0	-0.0	-0.0	172723.046875	-27884.541015625	3163.3349609375
0.0025	-0.0	-0.0	-0.0	-9.046210289001465	32.696895599365234	-446.0662841796875	10.790363311767578	-28.952890396118164	-545.3419799804688	-0.0	-0.0	-0.0	-0.0	-0.0	-0.0	172702.96875	-27679.560546875	3311.8740234375
0.003	-0.0	-0.0	-0.0	-9.068230628967283	32.43895721435547	-448.62646484375	10.572991371154783	-29.4672794342041	-543.82080078125	-0.0	-0.0	-0.0	-0.0	-0.0	-0.0	172292.359375	-27633.666015625	3103.95654296875
0.0035	-0.0	-0.0	-0.0	-8.595377922058105	32.67542266845703	-447.46197509765625	11.088848114013672	-29.354890823364254	-544.1051025390625	-0.0	-0.0	-0.0	-0.0	-0.0	-0.0	172214.28125	-27435.78515625	3166.375
0.004	-0.0	-0.0	-0.0	-8.916899681091309	32.71915817260742	-445.8527526855469	10.74184799194336	-29.33060836791992	-543.5332641601562	-0.0	-0.0	-0.0	-0.0	-0.0	-0.0	172152.734375	-27381.111328125	3176.86474609375
0.0045000000000000005	-0.0	-0.0	-0.0	-8.568157196044922	32.29623031616211	-444.5774841308594	10.798239707946776	-29.20250129699707	-544.7066040039062	-0.0	-0.0	-0.0	-0.0	-0.0	-0.0	171990.640625	-27361.734375	3233.642578125
0.005	-0.0	-0.0	-0.0	-8.564208984375	32.354339599609375	-445.3599243164063	10.669896125793455	-29.315380096435547	-545.5978393554688	-0.0	-0.0	-0.0	-0.0	-0.0	-0.0	172285.59375	-27226.353515625	3249.9755859375
0.0055	-0.0	-0.0	-0.0	-8.742630004882812	32.292510986328125	-444.4371948242188	10.773322105407717	-29.84545135498047	-544.3561401367188	-0.0	-0.0	-0.0	-0.0	-0.0	-0.0	172121.46875	-27093.326171875	3176.577880859375
0.006	-0.0	-0.0	-0.0	-8.694478988647461	32.44346618652344	-445.4686584472656	10.879491806030272	-29.37932777404785	-544.2994384765625	-0.0	-0.0	-0.0	-0.0	-0.0	-0.0	171868.53125	-26838.4453125	3163.64892578125
0.006500000000000001	-0.0	-0.0	-0.0	-8.687493324279785	32.50505447387695	-444.4223937988281	10.954421043395996	-29.44974708557129	-544.6055908203125	-0.0	-0.0	-0.0	-0.0	-0.0	-0.0	171732.4375	-26845.939453125	3104.375244140625
0.007	-0.0	-0.0	-0.0	-8.773392677307129	32.47420120239258	-445.1285095214844	10.829492568969728	-29.39292526245117	-543.4051513671875	-0.0	-0.0	-0.0	-0.0	-0.0	-0.0	171770.609375	-26541.48046875	3146.89013671875
0.0075	-0.0	-0.0	-0.0	-8.853950500488281	32.35147857666016	-443.95849609375	10.601457595825195	-29.8276424407959	-542.9307861328125	-0.0	-0.0	-0.0	-0.0	-0.0	-0.0	171657.171875	-26193.095703125	3036.314453125
0.008	-0.0	-0.0	-0.0	-8.859766006469727	32.354339599609375	-444.4109497070313	10.518458366394045	-29.68247413635254	-544.5516967773438	-0.0	-0.0	-0.0	-0.0	-0.0	-0.0	171584.25	-26325.935546875	3008.758056640625
0.0085	-0.0	-0.0	-0.0	-9.06384563446045	32.47401809692383	-445.3299255371094	9.91018772125244	-29.631668090820312	-544.0782470703125	-0.0	-0.0	-0.0	-0.0	-0.0	-0.0	171670.625	-26002.279296875	2995.58984375
0.009000000000000001	-0.0	-0.0	-0.0	-9.367103576660156	32.83283996582031	-442.31146240234375	9.947720527648926	-29.83333969116211	-544.3035278320312	-0.0	-0.0	-0.0	-0.0	-0.0	-0.0	171549.8125	-25650.927734375	2859.833251953125
0.0095	-0.0	-0.0	-0.0	-9.332281112670898	32.234771728515625	-443.835205078125	9.99278736114502	-30.137374877929688	-542.829833984375	-0.0	-0.0	-0.0	-0.0	-0.0	-0.0	171599.28125	-25620.23046875	2934.224853515625
0.01	-0.0	-0.0	-0.0	-9.24946403503418	32.88716125488281	-442.7828674316406	9.721063613891602	-30.003692626953125	-543.7528686523438	-0.0	-0.0	-0.0	-0.0	-0.0	-0.0	171262.71875	-25248.537109375	2738.90380859375
0.0105	-0.0	-0.0	-0.0	-9.693613052368164	32.71086120605469	-444.3003540039063	9.3091402053833	-30.00357818603516	-543.6074829101562	-0.0	-0.0	-0.0	-0.0	-0.0	-0.0	171375.609375	-25096.873046875	2700.263671875
0.011	-0.0	-0.0	-0.0	-10.377059936523438	32.53424072265625	-443.94720458984375	9.08520221710205	-29.972267150878903	-542.8284301757812	-0.0	-0.0	-0.0	-0.0	-0.0	-0.0	171346.09375	-24952.021484375	2600.58837890625
0.0115	-0.0	-0.0	-0.0	-9.962790489196776	32.59012222290039	-443.3660583496094	8.933640480041504	-29.70212173461914	-545.2315063476562	-0.0	-0.0	-0.0	-0.0	-0.0	-0.0	171189.40625	-24881.248046875	2630.164794921875
0.012	-0.0	-0.0	-0.0	-10.25920867919922	32.296627044677734	-441.1166687011719	8.693656921386719	-29.99827766418457	-543.7323608398438	-0.0	-0.0	-0.0	-0.0	-0.0	-0.0	171049.390625	-24686.08984375	2577.666259765625
0.0125	-0.0	-0.0	-0.0	-10.406455039978027	32.17823028564453	-442.5301818847656	8.77279281616211	-29.96731376647949	-543.1572265625	-0.0	-0.0	-0.0	-0.0	-0.0	-0.0	170888.484375	-24589.08984375	2380.5712890625
0.013000000000000001	-0.0	-0.0	-0.0	-10.677006721496582	32.17607879638672	-440.2894592285156	8.343413352966309	-29.55679702758789	-543.2617797851562	-0.0	-0.0	-0.0	-0.0	-0.0	-0.0	171113.796875	-24321.78125	2370.01171875
0.0135	-0.0	-0.0	-0.0	-10.79521656036377	32.68090057373047	-441.1188049316406	8.010570526123047	-30.0205020904541	-542.337158203125	-0.0	-0.0	-0.0	-0.0	-0.0	-0.0	170541.28125	-24282.12109375	2264.41357421875
